<svg width="32" height="32" viewBox="0 0 32 32" fill="none" xmlns="http://www.w3.org/2000/svg">
  <!-- Background circle with gradient -->
  <defs>
    <linearGradient id="logoGradient" x1="0%" y1="0%" x2="100%" y2="100%">
      <stop offset="0%" style="stop-color:#3B82F6;stop-opacity:1" />
      <stop offset="50%" style="stop-color:#8B5CF6;stop-opacity:1" />
      <stop offset="100%" style="stop-color:#06B6D4;stop-opacity:1" />
    </linearGradient>
  </defs>
  
  <!-- Main circle background -->
  <circle cx="16" cy="16" r="15" fill="url(#logoGradient)" stroke="#1F2937" stroke-width="1"/>
  
  <!-- D3 stylized -->
  <path d="M8 10 L8 22 L13 22 C15.5 22 17.5 20 17.5 17.5 C17.5 16 16.8 14.7 15.7 14 C16.3 13.5 16.7 12.7 16.7 11.8 C16.7 9.8 15.2 10 13.5 10 L8 10 Z M10.5 12 L12.8 12 C13.5 12 14 12.5 14 13.2 C14 13.9 13.5 14.4 12.8 14.4 L10.5 14.4 L10.5 12 Z M10.5 16.2 L13.2 16.2 C14.1 16.2 14.8 16.9 14.8 17.8 C14.8 18.7 14.1 19.4 13.2 19.4 L10.5 19.4 L10.5 16.2 Z" fill="white"/>
  
  <!-- 4 stylized -->
  <path d="M18 10 L18 15 L21 15 L21 10 L23 10 L23 15 L24 15 L24 17 L23 17 L23 22 L21 22 L21 17 L16 17 L16 15 L21 15 L21 12 L18 12 L18 10 Z" fill="white"/>
  
  <!-- Small circuit pattern accent -->
  <circle cx="12" cy="8" r="1" fill="white" opacity="0.6"/>
  <circle cx="20" cy="8" r="1" fill="white" opacity="0.6"/>
  <circle cx="12" cy="24" r="1" fill="white" opacity="0.6"/>
  <circle cx="20" cy="24" r="1" fill="white" opacity="0.6"/>
  
  <!-- Connecting lines for tech feel -->
  <line x1="12" y1="8" x2="20" y2="8" stroke="white" stroke-width="0.5" opacity="0.4"/>
  <line x1="12" y1="24" x2="20" y2="24" stroke="white" stroke-width="0.5" opacity="0.4"/>
</svg>
